<svg xmlns="http://www.w3.org/2000/svg" x="0px" y="0px" viewBox="0 0 1000 1000">
<path d="M145.6,539.6h524.9c21.9,0,39.7-17.8,39.7-39.7c0-21.9-17.8-39.7-39.7-39.7H145.6l76.5-76.5c15.4-15.5,15.4-40.7-0.1-56.2c-7.5-7.5-17.5-11.6-28.1-11.6c-10.6,0-20.6,4.1-28.1,11.6L21.9,471.6c-3.7,3.7-6.7,8-8.9,13.4c-1.9,4.8-2.9,9.9-2.9,14.9c0,5.1,1,10.2,3,15.2c2.1,5,5,9.4,8.6,12.9l144.3,144.3c7.5,7.5,17.5,11.6,28.1,11.6c10.6,0,20.6-4.1,28.1-11.7c15.4-15.5,15.4-40.6,0-56.2L145.6,539.6z"/><path d="M857.7,144.4H411.2c-73,0-132.3,59.4-132.3,132.4l0.1,117.6c0.5,21.4,18.3,38.8,39.7,38.8c13,0,24.6-6.4,31.9-16.2l7.8-0.1V276.8c0-29.2,23.7-52.9,52.9-52.9h446.5c29.2,0,52.9,23.7,52.9,52.9v446.5c0,29.2-23.7,52.9-52.9,52.9H411.2c-29.2,0-52.9-23.7-52.9-52.9l-0.1-140.4h-7.7c-7.2-9.7-18.7-16-31.9-16c-21.6,0-39.1,17-39.7,39.7v116.7c0,73,59.4,132.4,132.3,132.4h446.5c73,0,132.3-59.4,132.3-132.4V276.8C990,203.8,930.6,144.4,857.7,144.4z"/>
</svg>