<svg height="512" viewBox="0 0 64 64" width="512" xmlns="http://www.w3.org/2000/svg"><g id="Blue"><path d="m14 23h26v38h-22c-2.658 0-4-1.342-4-4z" fill="#7cb8eb"/><path d="m40 61 8-8a5.876 5.876 0 0 0 2-5v-35l-10 10z" fill="#7cb8eb"/><path d="m40 23 4-14 6 4z" fill="#cdeef6"/><path d="m14 23 6-14h24l-4 14z" fill="#cdeef6"/><path d="m20 3h24v6h-24z" fill="#7cb8eb"/><g fill="#4f83d1"><path d="m38 16h-16a1 1 0 0 1 0-2h16a1 1 0 0 1 0 2z"/><path d="m18 30a1 1 0 0 1 -.707-1.707l2-2a1 1 0 0 1 1.414 1.414l-2 2a1 1 0 0 1 -.707.293z"/><path d="m24 30a1 1 0 0 1 -.707-1.707l2-2a1 1 0 0 1 1.414 1.414l-2 2a1 1 0 0 1 -.707.293z"/><path d="m18 49a1 1 0 0 1 -.707-1.707l18-18a1 1 0 0 1 1.414 1.414l-18 18a1 1 0 0 1 -.707.293z"/><path d="m24 49a1 1 0 0 1 -.707-1.707l12-12a1 1 0 0 1 1.414 1.414l-12 12a1 1 0 0 1 -.707.293z"/><path d="m44 2h-24a1 1 0 0 0 -1 1v5.8s-5.922 13.824-5.924 13.83a1.889 1.889 0 0 0 -.076.37v34c0 3.225 1.775 5 5 5h22a1.007 1.007 0 0 0 .708-.294l8-8c1.074-1.073 2.292-2.292 2.292-5.706v-35a.991.991 0 0 0 -.451-.824l-5.549-3.711v-5.465a1 1 0 0 0 -1-1zm-23 2h22v4h-22zm18 56h-21c-2.1 0-3-.9-3-3v-33h24zm.246-38h-23.729l5.142-12h22.015zm9.754 26c0 2.586-.753 3.339-1.707 4.293l-6.293 6.293v-35.172l8-8zm-.57-34.845-6.408 6.409 2.563-8.972z"/><path d="m38 14h-16a1 1 0 0 0 0 2h16a1 1 0 0 0 0-2z"/><path d="m18 30a1 1 0 0 0 .707-.293l2-2a1 1 0 0 0 -1.414-1.414l-2 2a1 1 0 0 0 .707 1.707z"/><path d="m24 30a1 1 0 0 0 .707-.293l2-2a1 1 0 0 0 -1.414-1.414l-2 2a1 1 0 0 0 .707 1.707z"/><path d="m18 49a1 1 0 0 0 .707-.293l18-18a1 1 0 0 0 -1.414-1.414l-18 18a1 1 0 0 0 .707 1.707z"/><path d="m35.293 35.293-12 12a1 1 0 1 0 1.414 1.414l12-12a1 1 0 0 0 -1.414-1.414z"/></g></g></svg>