<svg fill="#000000" xmlns="http://www.w3.org/2000/svg"  viewBox="0 0 100 100" width="100px" height="100px"><path d="M 41.5 10 A 0.50005 0.50005 0 0 0 41.146484 10.146484 L 39.203125 12.089844 A 0.50005 0.50005 0 0 0 39 12.568359 L 39 15.5 A 0.50005 0.50005 0 0 0 39.173828 15.878906 C 39.173828 15.878906 39.971068 16.552296 40.810547 18.111328 C 41.592411 19.563362 42.373628 21.767747 42.478516 24.822266 C 42.279802 24.999314 42.079568 25.175034 41.896484 25.367188 C 41.039484 24.476714 39.337772 23 36 23 C 33.766163 23 31.590808 23.959945 29.630859 25.5625 C 28.470024 25.238259 27.272656 25 26 25 C 21.853939 25 18.02925 27.542677 15.337891 31.990234 C 12.646531 36.437792 11 42.813761 11 50.822266 C 11 58.898915 13.475957 67.078945 17.03125 73.310547 C 20.586543 79.542149 25.204624 84 30 84 C 30.671997 84 31.293163 83.897489 31.908203 83.785156 C 33.469409 85.117535 35.177445 86 37 86 C 39.864984 86 41.965407 84.554604 43.458984 83.181641 C 45.180009 84.859657 47.323891 86 50 86 C 52.676109 86 54.819991 84.859657 56.541016 83.181641 C 58.034593 84.554604 60.135016 86 63 86 C 64.822555 86 66.530591 85.117535 68.091797 83.785156 C 68.706837 83.897489 69.328003 84 70 84 C 74.795416 84 79.413463 79.540313 82.96875 73.308594 C 86.524037 67.076875 89 58.898428 89 50.822266 C 89 42.814252 87.353458 36.439857 84.662109 31.992188 C 81.970761 27.544517 78.146106 25 74 25 C 72.727344 25 71.529976 25.238259 70.369141 25.5625 C 68.409192 23.959945 66.233837 23 64 23 C 60.662228 23 58.960516 24.476714 58.103516 25.367188 C 57.902661 25.156383 57.684416 24.962132 57.464844 24.769531 C 55.422189 18.668606 52.418549 14.992306 49.816406 12.863281 C 46.991054 10.551629 44.609375 10.011719 44.609375 10.011719 A 0.50005 0.50005 0 0 0 44.5 10 L 41.5 10 z M 41.707031 11 L 44.423828 11 C 44.473288 11.01098 46.540702 11.474352 49.183594 13.636719 C 51.453395 15.493829 54.085509 18.605953 56.039062 23.722656 C 54.790499 22.954672 53.382112 22.430169 51.933594 22.179688 C 51.246323 19.25573 49.940278 16.955846 48.486328 15.183594 A 0.50005 0.50005 0 0 0 48.09375 14.994141 A 0.50005 0.50005 0 0 0 47.712891 15.816406 C 49.023841 17.414354 50.198204 19.457185 50.867188 22.042969 C 50.577952 22.020392 50.288389 22 50 22 C 48.931726 22 47.852395 22.162679 46.810547 22.462891 C 45.576414 16.668049 41.369247 13.269829 40.255859 12.451172 L 41.707031 11 z M 44.925781 11.996094 A 0.50005 0.50005 0 0 0 44.65625 12.900391 C 45.034906 13.18198 45.433757 13.515015 45.839844 13.875 A 0.50086883 0.50086883 0 0 0 46.503906 13.125 C 46.081993 12.750985 45.661297 12.40402 45.251953 12.099609 A 0.50005 0.50005 0 0 0 44.925781 11.996094 z M 40 13.517578 C 41.481579 14.714338 44.857311 17.895502 45.857422 22.785156 C 45.002977 23.112417 44.189525 23.536671 43.445312 24.054688 C 43.243147 21.213212 42.472142 19.092238 41.689453 17.638672 C 40.86376 16.105243 40.153395 15.495438 40 15.355469 L 40 13.517578 z M 50 24 C 52.732755 24 55.777681 25.320508 57.259766 27.332031 A 1.0001 1.0001 0 0 0 58.880859 27.316406 C 58.880859 27.316411 60.4565 25 64 25 C 64.343727 25 64.689785 25.035186 65.037109 25.089844 C 65.098976 25.099573 65.160758 25.107664 65.222656 25.119141 C 65.550383 25.179858 65.878848 25.265637 66.207031 25.375 C 66.291126 25.403261 66.374957 25.437225 66.458984 25.46875 C 66.726352 25.568087 66.993832 25.686636 67.259766 25.818359 C 67.41162 25.894555 67.563608 25.977379 67.714844 26.064453 C 67.908141 26.174264 68.099418 26.294747 68.291016 26.421875 C 68.465683 26.539309 68.639166 26.656772 68.8125 26.789062 C 68.813674 26.789958 68.815233 26.790119 68.816406 26.791016 C 68.827614 26.799471 68.83841 26.809843 68.849609 26.818359 C 69.063533 26.983031 69.276836 27.158241 69.488281 27.345703 A 1.0001 1.0001 0 0 0 69.605469 27.433594 C 70.733946 28.449632 71.808177 29.777886 72.771484 31.435547 C 75.270087 35.735146 77 42.168425 77 50.564453 C 77 58.896907 75.180343 67.328845 72.484375 73.638672 C 71.136391 76.793585 69.567135 79.416669 67.925781 81.224609 C 67.586435 81.598397 67.244418 81.927703 66.902344 82.228516 C 66.710279 82.396303 66.519013 82.553741 66.328125 82.697266 C 65.834114 83.070801 65.340374 83.372486 64.849609 83.585938 C 64.830748 83.594074 64.811811 83.601483 64.792969 83.609375 C 64.624415 83.680555 64.456627 83.741257 64.289062 83.792969 C 64.244733 83.806497 64.200458 83.819883 64.15625 83.832031 C 64.009691 83.872801 63.864278 83.904119 63.71875 83.929688 C 63.665416 83.938912 63.611728 83.951803 63.558594 83.958984 C 63.371628 83.984684 63.18476 84 63 84 C 60.501993 84 58.521322 82.538438 57.263672 81.238281 A 1.0001 1.0001 0 0 0 55.783203 81.283203 C 54.288903 83.033671 52.491235 84 50 84 C 47.508765 84 45.711097 83.033669 44.216797 81.283203 A 1.0001 1.0001 0 0 0 44.197266 81.261719 L 43.873047 80.882812 L 43.871094 80.878906 C 42.203695 78.729608 40.905936 75.114009 39.986328 71.046875 C 39.066297 66.977871 38.508122 62.456456 38.228516 58.464844 A 0.50005 0.50005 0 0 0 37.736328 57.992188 A 0.50005 0.50005 0 0 0 37.230469 58.535156 C 37.512862 62.566544 38.073796 67.128083 39.009766 71.267578 C 39.902657 75.216556 41.127091 78.765758 42.837891 81.146484 A 1.0001 1.0001 0 0 0 42.736328 81.238281 C 41.478678 82.538436 39.498007 84 37 84 C 36.81524 84 36.628372 83.984684 36.441406 83.958984 C 36.388272 83.951803 36.334584 83.938912 36.28125 83.929688 C 36.135722 83.904119 35.990309 83.872801 35.84375 83.832031 C 35.799542 83.819883 35.755267 83.806497 35.710938 83.792969 C 35.543373 83.741257 35.375585 83.680555 35.207031 83.609375 C 35.188189 83.601483 35.169252 83.594074 35.150391 83.585938 C 34.659626 83.372486 34.165886 83.070801 33.671875 82.697266 C 33.480987 82.553741 33.289721 82.396303 33.097656 82.228516 C 32.755582 81.927703 32.413565 81.598397 32.074219 81.224609 C 30.432865 79.416669 28.863609 76.793585 27.515625 73.638672 C 24.819657 67.328845 23 58.896907 23 50.564453 C 23 48.048165 23.171693 45.72827 23.457031 43.564453 A 0.50005 0.50005 0 0 0 22.970703 42.992188 A 0.50005 0.50005 0 0 0 22.464844 43.435547 C 22.174182 45.63973 22 48.002741 22 50.564453 C 22 59.041999 23.837421 67.575577 26.595703 74.03125 C 27.972215 77.252932 29.577297 79.958922 31.324219 81.886719 C 30.896518 81.952766 30.460586 82 30 82 C 26.530376 82 22.147988 78.240008 18.769531 72.318359 C 15.391075 66.396711 13 58.486616 13 50.822266 C 13 43.08977 14.610937 37.054083 17.048828 33.025391 C 19.486719 28.996698 22.663061 27 26 27 C 27.253155 27 28.431233 27.1905 29.542969 27.548828 A 1.0001 1.0001 0 0 0 30.511719 27.345703 C 32.291127 25.768122 34.166481 25 36 25 C 39.5435 25 41.119141 27.316406 41.119141 27.316406 A 1.0001 1.0001 0 0 0 41.365234 27.558594 C 39.284678 30.703479 37.961838 35.305503 37.367188 42.458984 A 0.50005 0.50005 0 1 0 38.363281 42.541016 C 38.964855 35.304259 40.314984 30.819937 42.332031 27.890625 L 42.337891 27.882812 C 42.33866 27.881712 42.339044 27.880006 42.339844 27.878906 L 42.742188 27.332031 A 0.50005 0.50005 0 0 0 42.748047 27.322266 C 44.23281 25.316292 47.27172 24 50 24 z M 74 27 C 77.336894 27 80.51327 28.998514 82.951172 33.027344 C 85.389074 37.056173 87 43.090279 87 50.822266 C 87 58.486103 84.608932 66.396578 81.230469 72.318359 C 77.852006 78.24014 73.469584 82 70 82 C 69.539414 82 69.103482 81.952766 68.675781 81.886719 C 70.422703 79.958922 72.027785 77.252932 73.404297 74.03125 C 76.162579 67.575577 78 59.041999 78 50.564453 C 78 42.031481 76.251867 35.431792 73.636719 30.931641 C 72.831869 29.546654 71.935314 28.382917 70.986328 27.400391 C 71.941766 27.142923 72.942972 27 74 27 z M 59.189453 28.992188 A 0.50005 0.50005 0 0 0 59.140625 28.994141 A 0.50005 0.50005 0 0 0 58.734375 29.722656 C 60.16684 32.604096 61.15067 36.667103 61.638672 42.541016 A 0.50005 0.50005 0 1 0 62.634766 42.458984 C 62.140768 36.512897 61.146441 32.329904 59.628906 29.277344 A 0.50005 0.50005 0 0 0 59.189453 28.992188 z M 27.90625 28.994141 A 0.50005 0.50005 0 0 0 27.490234 29.207031 C 27.250586 29.538527 27.0295 29.889422 26.8125 30.232422 A 0.50040122 0.50040122 0 1 0 27.658203 30.767578 C 27.875203 30.424578 28.086429 30.089473 28.300781 29.792969 A 0.50005 0.50005 0 0 0 27.90625 28.994141 z M 26.082031 31.994141 A 0.50005 0.50005 0 0 0 25.65625 32.277344 C 25.043966 33.503952 24.492755 34.859735 24.013672 36.345703 A 0.50091854 0.50091854 0 1 0 24.966797 36.654297 C 25.431714 35.212265 25.963065 33.900048 26.550781 32.722656 A 0.50005 0.50005 0 0 0 26.082031 31.994141 z M 36.5 46 C 34.019 46 32 48.019 32 50.5 C 32 52.981 34.019 55 36.5 55 C 38.981 55 41 52.981 41 50.5 C 41 49.42 40.602797 48.442016 39.966797 47.666016 C 39.985797 47.775016 40 47.885 40 48 C 40 49.105 39.105 50 38 50 C 36.895 50 36 49.105 36 48 C 36 47.099 36.600922 46.345703 37.419922 46.095703 C 37.122922 46.033703 36.815 46 36.5 46 z M 62.5 46 C 60.019 46 58 48.019 58 50.5 C 58 52.981 60.019 55 62.5 55 C 64.981 55 67 52.981 67 50.5 C 67 49.42 66.602797 48.442016 65.966797 47.666016 C 65.985797 47.775016 66 47.885 66 48 C 66 49.105 65.105 50 64 50 C 62.895 50 62 49.105 62 48 C 62 47.099 62.600922 46.345703 63.419922 46.095703 C 63.122922 46.033703 62.815 46 62.5 46 z M 31 57 C 29.708334 57 28.676923 57.502378 28.001953 58.261719 C 27.326984 59.02106 27 60.013889 27 61 C 27 61.986111 27.326984 62.97894 28.001953 63.738281 C 28.676923 64.497622 29.708334 65 31 65 C 32.291666 65 33.323077 64.497622 33.998047 63.738281 C 34.673016 62.97894 35 61.986111 35 61 C 35 60.013889 34.673016 59.02106 33.998047 58.261719 C 33.323077 57.502378 32.291666 57 31 57 z M 69 57 C 67.708334 57 66.676923 57.502378 66.001953 58.261719 C 65.326984 59.02106 65 60.013889 65 61 C 65 61.986111 65.326984 62.97894 66.001953 63.738281 C 66.676923 64.497622 67.708334 65 69 65 C 70.291666 65 71.323077 64.497622 71.998047 63.738281 C 72.673016 62.97894 73 61.986111 73 61 C 73 60.013889 72.673016 59.02106 71.998047 58.261719 C 71.323077 57.502378 70.291666 57 69 57 z M 62.25 57.994141 A 0.50005 0.50005 0 0 0 61.771484 58.464844 C 61.549659 61.613175 61.147053 65.08229 60.537109 68.410156 A 0.50032038 0.50032038 0 1 0 61.521484 68.589844 C 62.139541 65.21771 62.545357 61.716825 62.769531 58.535156 A 0.50005 0.50005 0 0 0 62.25 57.994141 z M 31 58 C 32.041666 58 32.760256 58.372622 33.251953 58.925781 C 33.74365 59.47894 34 60.236111 34 61 C 34 61.763889 33.74365 62.52106 33.251953 63.074219 C 32.760256 63.627378 32.041666 64 31 64 C 29.958334 64 29.239744 63.627378 28.748047 63.074219 C 28.25635 62.52106 28 61.763889 28 61 C 28 60.236111 28.25635 59.47894 28.748047 58.925781 C 29.239744 58.372622 29.958334 58 31 58 z M 69 58 C 70.041666 58 70.760256 58.372622 71.251953 58.925781 C 71.74365 59.47894 72 60.236111 72 61 C 72 61.763889 71.74365 62.52106 71.251953 63.074219 C 70.760256 63.627378 70.041666 64 69 64 C 67.958334 64 67.239744 63.627378 66.748047 63.074219 C 66.25635 62.52106 66 61.763889 66 61 C 66 60.236111 66.25635 59.47894 66.748047 58.925781 C 67.239744 58.372622 67.958334 58 69 58 z M 46.5 62 A 0.50005 0.50005 0 0 0 46 62.5 C 46 63.722728 46.416856 65.042755 47.105469 66.101562 C 47.794081 67.16037 48.792855 68 50 68 C 51.207145 68 52.205919 67.16037 52.894531 66.101562 C 53.583144 65.042755 54 63.722728 54 62.5 A 0.50005 0.50005 0 0 0 53.5 62 L 46.5 62 z M 47.154297 63 L 52.845703 63 C 52.748963 63.86723 52.540208 64.813109 52.056641 65.556641 C 51.478503 66.445583 50.725855 67 50 67 C 49.274145 67 48.521497 66.445583 47.943359 65.556641 C 47.459792 64.813109 47.251037 63.86723 47.154297 63 z M 60.429688 70.992188 A 0.50005 0.50005 0 0 0 59.933594 71.386719 C 59.521586 73.156569 59.035648 74.823095 58.478516 76.326172 A 0.50005 0.50005 0 1 0 59.416016 76.673828 C 59.990883 75.122905 60.488211 73.417431 60.908203 71.613281 A 0.50005 0.50005 0 0 0 60.429688 70.992188 z M 58.134766 77.992188 A 0.50005 0.50005 0 0 0 58.085938 77.994141 A 0.50005 0.50005 0 0 0 57.667969 78.287109 C 57.509125 78.622868 57.335993 78.935196 57.158203 79.257812 A 0.50006127 0.50006127 0 1 0 58.033203 79.742188 C 58.211414 79.418804 58.395156 79.083132 58.570312 78.712891 A 0.50005 0.50005 0 0 0 58.134766 77.992188 z"/></svg>